# Blender 4.3.2
# www.blender.org
mtllib Wall.mtl
o Walls
v 0.000000 0.000000 -25.000000
v 0.000000 20.000000 -25.000000
v 4.877258 0.000000 -24.519630
v 4.877258 20.000000 -24.519630
v 9.567086 0.000000 -23.096987
v 9.567086 20.000000 -23.096987
v 13.889256 0.000000 -20.786739
v 13.889256 20.000000 -20.786739
v 17.677670 0.000000 -17.677670
v 17.677670 20.000000 -17.677670
v 20.786739 0.000000 -13.889256
v 20.786739 20.000000 -13.889256
v 23.096987 0.000000 -9.567086
v 23.096987 20.000000 -9.567086
v 24.519630 0.000000 -4.877258
v 24.519630 20.000000 -4.877258
v 25.000000 0.000000 0.000000
v 25.000000 20.000000 0.000000
v 24.519630 0.000000 4.877258
v 24.519630 20.000000 4.877258
v 23.096987 0.000000 9.567086
v 23.096987 20.000000 9.567086
v 20.786739 0.000000 13.889256
v 20.786739 20.000000 13.889256
v 17.677670 0.000000 17.677670
v 17.677670 20.000000 17.677670
v 13.889256 0.000000 20.786739
v 13.889256 20.000000 20.786739
v 9.567086 0.000000 23.096987
v 9.567086 20.000000 23.096987
v 4.877258 0.000000 24.519630
v 4.877258 20.000000 24.519630
v 0.000000 0.000000 25.000000
v 0.000000 20.000000 25.000000
v -4.877258 0.000000 24.519630
v -4.877258 20.000000 24.519630
v -9.567086 0.000000 23.096987
v -9.567086 20.000000 23.096987
v -13.889256 0.000000 20.786739
v -13.889256 20.000000 20.786739
v -17.677670 0.000000 17.677670
v -17.677670 20.000000 17.677670
v -20.786739 0.000000 13.889256
v -20.786739 20.000000 13.889256
v -23.096987 0.000000 9.567086
v -23.096987 20.000000 9.567086
v -24.519630 0.000000 4.877258
v -24.519630 20.000000 4.877258
v -25.000000 0.000000 0.000000
v -25.000000 20.000000 0.000000
v -24.519630 0.000000 -4.877258
v -24.519630 20.000000 -4.877258
v -23.096987 0.000000 -9.567086
v -23.096987 20.000000 -9.567086
v -20.786739 0.000000 -13.889256
v -20.786739 20.000000 -13.889256
v -17.677670 0.000000 -17.677670
v -17.677670 20.000000 -17.677670
v -13.889256 0.000000 -20.786739
v -13.889256 20.000000 -20.786739
v -9.567086 0.000000 -23.096987
v -9.567086 20.000000 -23.096987
v -4.877258 0.000000 -24.519630
v -4.877258 20.000000 -24.519630
v 4.389532 0.000001 -22.067667
v 0.000000 0.000001 -22.500000
v 0.000000 20.000000 -22.500000
v 4.389532 20.000000 -22.067667
v 8.610377 0.000001 -20.787289
v 8.610377 20.000000 -20.787289
v 12.500331 0.000001 -18.708065
v 12.500331 20.000000 -18.708065
v 15.909902 0.000001 -15.909902
v 15.909902 20.000000 -15.909902
v 18.708065 0.000001 -12.500331
v 18.708065 20.000000 -12.500331
v 20.787289 0.000001 -8.610377
v 20.787289 20.000000 -8.610377
v 22.067667 0.000001 -4.389532
v 22.067667 20.000000 -4.389532
v 22.500000 0.000001 0.000000
v 22.500000 20.000000 0.000000
v 22.067667 0.000001 4.389532
v 22.067667 20.000000 4.389532
v 20.787289 0.000001 8.610377
v 20.787289 20.000000 8.610377
v 18.708065 0.000001 12.500331
v 18.708065 20.000000 12.500331
v 15.909902 0.000001 15.909902
v 15.909902 20.000000 15.909902
v 12.500331 0.000001 18.708065
v 12.500331 20.000000 18.708065
v 8.610377 0.000001 20.787289
v 8.610377 20.000000 20.787289
v 4.389532 0.000001 22.067667
v 4.389532 20.000000 22.067667
v 0.000000 0.000001 22.500000
v 0.000000 20.000000 22.500000
v -4.389532 0.000001 22.067667
v -4.389532 20.000000 22.067667
v -8.610377 0.000001 20.787289
v -8.610377 20.000000 20.787289
v -12.500331 0.000001 18.708065
v -12.500331 20.000000 18.708065
v -15.909902 0.000001 15.909902
v -15.909902 20.000000 15.909902
v -18.708065 0.000001 12.500331
v -18.708065 20.000000 12.500331
v -20.787289 0.000001 8.610377
v -20.787289 20.000000 8.610377
v -22.067667 0.000001 4.389532
v -22.067667 20.000000 4.389532
v -22.500000 0.000001 0.000000
v -22.500000 20.000000 0.000000
v -22.067667 0.000001 -4.389532
v -22.067667 20.000000 -4.389532
v -20.787289 0.000001 -8.610377
v -20.787289 20.000000 -8.610377
v -18.708065 0.000001 -12.500331
v -18.708065 20.000000 -12.500331
v -15.909902 0.000001 -15.909902
v -15.909902 20.000000 -15.909902
v -12.500331 0.000001 -18.708065
v -12.500331 20.000000 -18.708065
v -8.610377 0.000001 -20.787289
v -8.610377 20.000000 -20.787289
v -4.389532 0.000001 -22.067667
v -4.389532 20.000000 -22.067667
vn -0.0980 -0.0000 0.9952
vn -0.2903 -0.0000 0.9569
vn -0.4714 -0.0000 0.8819
vn -0.6344 -0.0000 0.7730
vn -0.7730 -0.0000 0.6344
vn -0.8819 -0.0000 0.4714
vn -0.9569 -0.0000 0.2903
vn -0.9952 -0.0000 0.0980
vn -0.9952 -0.0000 -0.0980
vn -0.9569 -0.0000 -0.2903
vn -0.8819 -0.0000 -0.4714
vn -0.7730 -0.0000 -0.6344
vn -0.6344 -0.0000 -0.7730
vn -0.4714 -0.0000 -0.8819
vn -0.2903 -0.0000 -0.9569
vn -0.0980 -0.0000 -0.9952
vn 0.0980 -0.0000 -0.9952
vn 0.2903 -0.0000 -0.9569
vn 0.4714 -0.0000 -0.8819
vn 0.6344 -0.0000 -0.7730
vn 0.7730 -0.0000 -0.6344
vn 0.8819 -0.0000 -0.4714
vn 0.9569 -0.0000 -0.2903
vn 0.9952 -0.0000 -0.0980
vn 0.9952 -0.0000 0.0980
vn 0.9569 -0.0000 0.2903
vn 0.8819 -0.0000 0.4714
vn 0.7730 -0.0000 0.6344
vn 0.6344 -0.0000 0.7730
vn 0.4714 -0.0000 0.8819
vn 0.2903 -0.0000 0.9569
vn 0.0980 -0.0000 0.9952
vn -0.0000 1.0000 -0.0000
vn -0.0000 -1.0000 -0.0000
vt 1.000000 0.000000
vt 0.968750 0.000000
vt 0.968750 1.000000
vt 1.000000 1.000000
vt 0.937500 0.000000
vt 0.937500 1.000000
vt 0.906250 0.000000
vt 0.906250 1.000000
vt 0.875000 0.000000
vt 0.875000 1.000000
vt 0.843750 0.000000
vt 0.843750 1.000000
vt 0.812500 0.000000
vt 0.812500 1.000000
vt 0.781250 0.000000
vt 0.781250 1.000000
vt 0.750000 0.000000
vt 0.750000 1.000000
vt 0.718750 0.000000
vt 0.718750 1.000000
vt 0.687500 0.000000
vt 0.687500 1.000000
vt 0.656250 0.000000
vt 0.656250 1.000000
vt 0.625000 0.000000
vt 0.625000 1.000000
vt 0.593750 0.000000
vt 0.593750 1.000000
vt 0.562500 0.000000
vt 0.562500 1.000000
vt 0.531250 0.000000
vt 0.531250 1.000000
vt 0.500000 0.000000
vt 0.500000 1.000000
vt 0.468750 0.000000
vt 0.468750 1.000000
vt 0.437500 0.000000
vt 0.437500 1.000000
vt 0.406250 0.000000
vt 0.406250 1.000000
vt 0.375000 0.000000
vt 0.375000 1.000000
vt 0.343750 0.000000
vt 0.343750 1.000000
vt 0.312500 0.000000
vt 0.312500 1.000000
vt 0.281250 0.000000
vt 0.281250 1.000000
vt 0.250000 0.000000
vt 0.250000 1.000000
vt 0.218750 0.000000
vt 0.218750 1.000000
vt 0.187500 0.000000
vt 0.187500 1.000000
vt 0.156250 0.000000
vt 0.156250 1.000000
vt 0.125000 0.000000
vt 0.125000 1.000000
vt 0.093750 0.000000
vt 0.093750 1.000000
vt 0.062500 0.000000
vt 0.062500 1.000000
vt 0.031250 0.000000
vt 0.031250 1.000000
vt 0.000000 0.000000
vt 0.000000 1.000000
s 0
f 1/1/1 3/2/1 4/3/1 2/4/1
f 3/2/2 5/5/2 6/6/2 4/3/2
f 5/5/3 7/7/3 8/8/3 6/6/3
f 7/7/4 9/9/4 10/10/4 8/8/4
f 9/9/5 11/11/5 12/12/5 10/10/5
f 11/11/6 13/13/6 14/14/6 12/12/6
f 13/13/7 15/15/7 16/16/7 14/14/7
f 15/15/8 17/17/8 18/18/8 16/16/8
f 17/17/9 19/19/9 20/20/9 18/18/9
f 19/19/10 21/21/10 22/22/10 20/20/10
f 21/21/11 23/23/11 24/24/11 22/22/11
f 23/23/12 25/25/12 26/26/12 24/24/12
f 25/25/13 27/27/13 28/28/13 26/26/13
f 27/27/14 29/29/14 30/30/14 28/28/14
f 29/29/15 31/31/15 32/32/15 30/30/15
f 31/31/16 33/33/16 34/34/16 32/32/16
f 33/33/17 35/35/17 36/36/17 34/34/17
f 35/35/18 37/37/18 38/38/18 36/36/18
f 37/37/19 39/39/19 40/40/19 38/38/19
f 39/39/20 41/41/20 42/42/20 40/40/20
f 41/41/21 43/43/21 44/44/21 42/42/21
f 43/43/22 45/45/22 46/46/22 44/44/22
f 45/45/23 47/47/23 48/48/23 46/46/23
f 47/47/24 49/49/24 50/50/24 48/48/24
f 49/49/25 51/51/25 52/52/25 50/50/25
f 51/51/26 53/53/26 54/54/26 52/52/26
f 53/53/27 55/55/27 56/56/27 54/54/27
f 55/55/28 57/57/28 58/58/28 56/56/28
f 57/57/29 59/59/29 60/60/29 58/58/29
f 59/59/30 61/61/30 62/62/30 60/60/30
f 61/61/31 63/63/31 64/64/31 62/62/31
f 63/63/32 1/65/32 2/66/32 64/64/32
f 66/1/17 67/4/17 68/3/17 65/2/17
f 65/2/18 68/3/18 70/6/18 69/5/18
f 69/5/19 70/6/19 72/8/19 71/7/19
f 71/7/20 72/8/20 74/10/20 73/9/20
f 73/9/21 74/10/21 76/12/21 75/11/21
f 75/11/22 76/12/22 78/14/22 77/13/22
f 77/13/23 78/14/23 80/16/23 79/15/23
f 79/15/24 80/16/24 82/18/24 81/17/24
f 81/17/25 82/18/25 84/20/25 83/19/25
f 83/19/26 84/20/26 86/22/26 85/21/26
f 85/21/27 86/22/27 88/24/27 87/23/27
f 87/23/28 88/24/28 90/26/28 89/25/28
f 89/25/29 90/26/29 92/28/29 91/27/29
f 91/27/30 92/28/30 94/30/30 93/29/30
f 93/29/31 94/30/31 96/32/31 95/31/31
f 95/31/32 96/32/32 98/34/32 97/33/32
f 97/33/1 98/34/1 100/36/1 99/35/1
f 99/35/2 100/36/2 102/38/2 101/37/2
f 101/37/3 102/38/3 104/40/3 103/39/3
f 103/39/4 104/40/4 106/42/4 105/41/4
f 105/41/5 106/42/5 108/44/5 107/43/5
f 107/43/6 108/44/6 110/46/6 109/45/6
f 109/45/7 110/46/7 112/48/7 111/47/7
f 111/47/8 112/48/8 114/50/8 113/49/8
f 113/49/9 114/50/9 116/52/9 115/51/9
f 115/51/10 116/52/10 118/54/10 117/53/10
f 117/53/11 118/54/11 120/56/11 119/55/11
f 119/55/12 120/56/12 122/58/12 121/57/12
f 121/57/13 122/58/13 124/60/13 123/59/13
f 123/59/14 124/60/14 126/62/14 125/61/14
f 125/61/15 126/62/15 128/64/15 127/63/15
f 127/63/16 128/64/16 67/66/16 66/65/16
f 43/43/33 41/41/33 105/41/33 107/43/33
f 24/24/34 26/26/34 90/26/34 88/24/34
f 61/61/33 59/59/33 123/59/33 125/61/33
f 42/42/34 44/44/34 108/44/34 106/42/34
f 9/9/33 7/7/33 71/7/33 73/9/33
f 60/60/34 62/62/34 126/62/34 124/60/34
f 27/27/33 25/25/33 89/25/33 91/27/33
f 8/8/34 10/10/34 74/10/34 72/8/34
f 45/45/33 43/43/33 107/43/33 109/45/33
f 26/26/34 28/28/34 92/28/34 90/26/34
f 63/63/33 61/61/33 125/61/33 127/63/33
f 44/44/34 46/46/34 110/46/34 108/44/34
f 11/11/33 9/9/33 73/9/33 75/11/33
f 62/62/34 64/64/34 128/64/34 126/62/34
f 29/29/33 27/27/33 91/27/33 93/29/33
f 10/10/34 12/12/34 76/12/34 74/10/34
f 47/47/33 45/45/33 109/45/33 111/47/33
f 28/28/34 30/30/34 94/30/34 92/28/34
f 1/65/33 63/63/33 127/63/33 66/65/33
f 46/46/34 48/48/34 112/48/34 110/46/34
f 13/13/33 11/11/33 75/11/33 77/13/33
f 64/64/34 2/66/34 67/66/34 128/64/34
f 31/31/33 29/29/33 93/29/33 95/31/33
f 12/12/34 14/14/34 78/14/34 76/12/34
f 49/49/33 47/47/33 111/47/33 113/49/33
f 30/30/34 32/32/34 96/32/34 94/30/34
f 48/48/34 50/50/34 114/50/34 112/48/34
f 15/15/33 13/13/33 77/13/33 79/15/33
f 33/33/33 31/31/33 95/31/33 97/33/33
f 14/14/34 16/16/34 80/16/34 78/14/34
f 51/51/33 49/49/33 113/49/33 115/51/33
f 32/32/34 34/34/34 98/34/34 96/32/34
f 50/50/34 52/52/34 116/52/34 114/50/34
f 17/17/33 15/15/33 79/15/33 81/17/33
f 35/35/33 33/33/33 97/33/33 99/35/33
f 16/16/34 18/18/34 82/18/34 80/16/34
f 53/53/33 51/51/33 115/51/33 117/53/33
f 34/34/34 36/36/34 100/36/34 98/34/34
f 52/52/34 54/54/34 118/54/34 116/52/34
f 19/19/33 17/17/33 81/17/33 83/19/33
f 37/37/33 35/35/33 99/35/33 101/37/33
f 18/18/34 20/20/34 84/20/34 82/18/34
f 3/2/33 1/1/33 66/1/33 65/2/33
f 55/55/33 53/53/33 117/53/33 119/55/33
f 36/36/34 38/38/34 102/38/34 100/36/34
f 54/54/34 56/56/34 120/56/34 118/54/34
f 21/21/33 19/19/33 83/19/33 85/21/33
f 2/4/34 4/3/34 68/3/34 67/4/34
f 39/39/33 37/37/33 101/37/33 103/39/33
f 20/20/34 22/22/34 86/22/34 84/20/34
f 57/57/33 55/55/33 119/55/33 121/57/33
f 38/38/34 40/40/34 104/40/34 102/38/34
f 5/5/33 3/2/33 65/2/33 69/5/33
f 56/56/34 58/58/34 122/58/34 120/56/34
f 23/23/33 21/21/33 85/21/33 87/23/33
f 4/3/34 6/6/34 70/6/34 68/3/34
f 41/41/33 39/39/33 103/39/33 105/41/33
f 22/22/34 24/24/34 88/24/34 86/22/34
f 59/59/33 57/57/33 121/57/33 123/59/33
f 40/40/34 42/42/34 106/42/34 104/40/34
f 7/7/33 5/5/33 69/5/33 71/7/33
f 58/58/34 60/60/34 124/60/34 122/58/34
f 25/25/33 23/23/33 87/23/33 89/25/33
f 6/6/34 8/8/34 72/8/34 70/6/34
